<mxfile host="app.diagrams.net" modified="2023-11-30T12:55:44.088Z" agent="Mozilla/5.0 (Windows NT 10.0; Win64; x64) AppleWebKit/537.36 (KHTML, like Gecko) Chrome/119.0.0.0 Safari/537.36" etag="au2NDJCkDLlAkirxVeOT" version="22.1.5" type="github">
  <diagram name="Page-1" id="BNVMVVkAg9YzSViz5vEi">
    <mxGraphModel dx="1434" dy="758" grid="1" gridSize="10" guides="1" tooltips="1" connect="1" arrows="1" fold="1" page="1" pageScale="1" pageWidth="827" pageHeight="1169" math="0" shadow="0">
      <root>
        <mxCell id="0" />
        <mxCell id="1" parent="0" />
        <mxCell id="j7buN4e_r3IBK3xZFRkP-11" style="edgeStyle=orthogonalEdgeStyle;rounded=0;orthogonalLoop=1;jettySize=auto;html=1;exitX=0.5;exitY=1;exitDx=0;exitDy=0;" edge="1" parent="1" source="j7buN4e_r3IBK3xZFRkP-1" target="j7buN4e_r3IBK3xZFRkP-2">
          <mxGeometry relative="1" as="geometry" />
        </mxCell>
        <mxCell id="j7buN4e_r3IBK3xZFRkP-15" style="edgeStyle=orthogonalEdgeStyle;rounded=0;orthogonalLoop=1;jettySize=auto;html=1;exitX=0.5;exitY=1;exitDx=0;exitDy=0;entryX=0.5;entryY=0;entryDx=0;entryDy=0;" edge="1" parent="1" source="j7buN4e_r3IBK3xZFRkP-1" target="j7buN4e_r3IBK3xZFRkP-2">
          <mxGeometry relative="1" as="geometry" />
        </mxCell>
        <mxCell id="j7buN4e_r3IBK3xZFRkP-1" value="debut" style="rounded=1;whiteSpace=wrap;html=1;" vertex="1" parent="1">
          <mxGeometry x="45" y="20" width="195" height="70" as="geometry" />
        </mxCell>
        <mxCell id="j7buN4e_r3IBK3xZFRkP-12" style="edgeStyle=orthogonalEdgeStyle;rounded=0;orthogonalLoop=1;jettySize=auto;html=1;exitX=0.5;exitY=1;exitDx=0;exitDy=0;" edge="1" parent="1" source="j7buN4e_r3IBK3xZFRkP-2" target="j7buN4e_r3IBK3xZFRkP-4">
          <mxGeometry relative="1" as="geometry" />
        </mxCell>
        <mxCell id="j7buN4e_r3IBK3xZFRkP-16" style="edgeStyle=orthogonalEdgeStyle;rounded=0;orthogonalLoop=1;jettySize=auto;html=1;exitX=0.5;exitY=1;exitDx=0;exitDy=0;entryX=0.5;entryY=0;entryDx=0;entryDy=0;" edge="1" parent="1" source="j7buN4e_r3IBK3xZFRkP-2" target="j7buN4e_r3IBK3xZFRkP-4">
          <mxGeometry relative="1" as="geometry" />
        </mxCell>
        <mxCell id="j7buN4e_r3IBK3xZFRkP-2" value="écrire nombre" style="shape=parallelogram;perimeter=parallelogramPerimeter;whiteSpace=wrap;html=1;fixedSize=1;" vertex="1" parent="1">
          <mxGeometry x="47.5" y="190" width="190" height="60" as="geometry" />
        </mxCell>
        <mxCell id="j7buN4e_r3IBK3xZFRkP-3" value="fin" style="rounded=1;whiteSpace=wrap;html=1;" vertex="1" parent="1">
          <mxGeometry x="82.5" y="1040" width="120" height="60" as="geometry" />
        </mxCell>
        <mxCell id="j7buN4e_r3IBK3xZFRkP-13" style="edgeStyle=orthogonalEdgeStyle;rounded=0;orthogonalLoop=1;jettySize=auto;html=1;exitX=0.5;exitY=1;exitDx=0;exitDy=0;" edge="1" parent="1" source="j7buN4e_r3IBK3xZFRkP-4" target="j7buN4e_r3IBK3xZFRkP-5">
          <mxGeometry relative="1" as="geometry" />
        </mxCell>
        <mxCell id="j7buN4e_r3IBK3xZFRkP-17" style="edgeStyle=orthogonalEdgeStyle;rounded=0;orthogonalLoop=1;jettySize=auto;html=1;exitX=0.5;exitY=1;exitDx=0;exitDy=0;entryX=0.5;entryY=0;entryDx=0;entryDy=0;" edge="1" parent="1" source="j7buN4e_r3IBK3xZFRkP-4" target="j7buN4e_r3IBK3xZFRkP-5">
          <mxGeometry relative="1" as="geometry" />
        </mxCell>
        <mxCell id="j7buN4e_r3IBK3xZFRkP-4" value="lire nombre" style="shape=parallelogram;perimeter=parallelogramPerimeter;whiteSpace=wrap;html=1;fixedSize=1;" vertex="1" parent="1">
          <mxGeometry x="47.5" y="310" width="190" height="60" as="geometry" />
        </mxCell>
        <mxCell id="j7buN4e_r3IBK3xZFRkP-14" style="edgeStyle=orthogonalEdgeStyle;rounded=0;orthogonalLoop=1;jettySize=auto;html=1;exitX=0.5;exitY=1;exitDx=0;exitDy=0;entryX=0.5;entryY=0;entryDx=0;entryDy=0;" edge="1" parent="1" source="j7buN4e_r3IBK3xZFRkP-5" target="j7buN4e_r3IBK3xZFRkP-6">
          <mxGeometry relative="1" as="geometry" />
        </mxCell>
        <mxCell id="j7buN4e_r3IBK3xZFRkP-18" style="edgeStyle=orthogonalEdgeStyle;rounded=0;orthogonalLoop=1;jettySize=auto;html=1;exitX=0.5;exitY=1;exitDx=0;exitDy=0;entryX=0.5;entryY=0;entryDx=0;entryDy=0;" edge="1" parent="1" source="j7buN4e_r3IBK3xZFRkP-5" target="j7buN4e_r3IBK3xZFRkP-6">
          <mxGeometry relative="1" as="geometry" />
        </mxCell>
        <mxCell id="j7buN4e_r3IBK3xZFRkP-5" value="calculer la parite:&lt;br&gt;&lt;br&gt;resultat &amp;lt;- nombre % 2" style="rounded=0;whiteSpace=wrap;html=1;" vertex="1" parent="1">
          <mxGeometry x="57.5" y="470" width="170" height="60" as="geometry" />
        </mxCell>
        <mxCell id="j7buN4e_r3IBK3xZFRkP-19" style="edgeStyle=orthogonalEdgeStyle;rounded=0;orthogonalLoop=1;jettySize=auto;html=1;exitX=0.5;exitY=1;exitDx=0;exitDy=0;entryX=0.5;entryY=0;entryDx=0;entryDy=0;" edge="1" parent="1" source="j7buN4e_r3IBK3xZFRkP-6" target="j7buN4e_r3IBK3xZFRkP-8">
          <mxGeometry relative="1" as="geometry" />
        </mxCell>
        <mxCell id="j7buN4e_r3IBK3xZFRkP-24" value="&lt;font style=&quot;font-size: 15px;&quot;&gt;oui&lt;/font&gt;" style="edgeLabel;html=1;align=center;verticalAlign=middle;resizable=0;points=[];" vertex="1" connectable="0" parent="j7buN4e_r3IBK3xZFRkP-19">
          <mxGeometry x="0.125" y="5" relative="1" as="geometry">
            <mxPoint as="offset" />
          </mxGeometry>
        </mxCell>
        <mxCell id="j7buN4e_r3IBK3xZFRkP-21" style="edgeStyle=orthogonalEdgeStyle;rounded=0;orthogonalLoop=1;jettySize=auto;html=1;exitX=1;exitY=0.5;exitDx=0;exitDy=0;entryX=0;entryY=0.5;entryDx=0;entryDy=0;" edge="1" parent="1" source="j7buN4e_r3IBK3xZFRkP-6" target="j7buN4e_r3IBK3xZFRkP-7">
          <mxGeometry relative="1" as="geometry" />
        </mxCell>
        <mxCell id="j7buN4e_r3IBK3xZFRkP-23" value="&lt;font style=&quot;font-size: 15px;&quot;&gt;non&lt;/font&gt;" style="edgeLabel;html=1;align=center;verticalAlign=middle;resizable=0;points=[];" vertex="1" connectable="0" parent="j7buN4e_r3IBK3xZFRkP-21">
          <mxGeometry x="-0.3176" y="2" relative="1" as="geometry">
            <mxPoint as="offset" />
          </mxGeometry>
        </mxCell>
        <mxCell id="j7buN4e_r3IBK3xZFRkP-6" value="résultat = 0" style="rhombus;whiteSpace=wrap;html=1;" vertex="1" parent="1">
          <mxGeometry x="65" y="630" width="155" height="170" as="geometry" />
        </mxCell>
        <mxCell id="j7buN4e_r3IBK3xZFRkP-22" style="edgeStyle=orthogonalEdgeStyle;rounded=0;orthogonalLoop=1;jettySize=auto;html=1;exitX=0.5;exitY=1;exitDx=0;exitDy=0;entryX=1;entryY=0.5;entryDx=0;entryDy=0;" edge="1" parent="1" source="j7buN4e_r3IBK3xZFRkP-7" target="j7buN4e_r3IBK3xZFRkP-3">
          <mxGeometry relative="1" as="geometry" />
        </mxCell>
        <mxCell id="j7buN4e_r3IBK3xZFRkP-7" value="écrire impair" style="shape=parallelogram;perimeter=parallelogramPerimeter;whiteSpace=wrap;html=1;fixedSize=1;" vertex="1" parent="1">
          <mxGeometry x="380" y="685" width="190" height="60" as="geometry" />
        </mxCell>
        <mxCell id="j7buN4e_r3IBK3xZFRkP-20" style="edgeStyle=orthogonalEdgeStyle;rounded=0;orthogonalLoop=1;jettySize=auto;html=1;exitX=0.5;exitY=1;exitDx=0;exitDy=0;entryX=0.5;entryY=0;entryDx=0;entryDy=0;" edge="1" parent="1" source="j7buN4e_r3IBK3xZFRkP-8" target="j7buN4e_r3IBK3xZFRkP-3">
          <mxGeometry relative="1" as="geometry" />
        </mxCell>
        <mxCell id="j7buN4e_r3IBK3xZFRkP-8" value="écrire pair" style="shape=parallelogram;perimeter=parallelogramPerimeter;whiteSpace=wrap;html=1;fixedSize=1;" vertex="1" parent="1">
          <mxGeometry x="47.5" y="880" width="190" height="60" as="geometry" />
        </mxCell>
      </root>
    </mxGraphModel>
  </diagram>
</mxfile>
